<svg version="1.0" xmlns="http://www.w3.org/2000/svg"
 width="170.000000pt" height="170.000000pt" viewBox="0 0 170.000000 170.000000"
 preserveAspectRatio="xMidYMid meet">

<g transform="translate(0.000000,170.000000) scale(0.100000,-0.100000)"
fill="#ffff" stroke="none">
<path d="M612 1680 c-296 -89 -514 -313 -597 -613 -13 -46 -16 -93 -12 -240 2
-102 9 -198 16 -219 l12 -37 56 62 c31 34 59 64 62 67 3 3 37 41 76 85 136
157 157 175 207 175 39 0 65 -14 244 -129 110 -70 210 -133 222 -140 19 -10
36 9 248 276 125 159 256 324 291 367 75 95 76 89 -44 186 -85 68 -165 113
-273 151 -58 21 -86 24 -255 26 -163 2 -199 -1 -253 -17z"/>
<path d="M1439 970 c-107 -135 -233 -294 -281 -355 -147 -189 -159 -200 -209
-200 -39 0 -68 15 -268 143 l-224 143 -23 -23 c-64 -67 -284 -320 -284 -327 0
-19 91 -118 160 -174 84 -67 199 -127 305 -157 101 -29 368 -29 473 0 221 61
420 224 526 430 73 142 86 200 86 396 0 175 -8 232 -48 324 l-19 44 -194 -244z"/>
</g>
</svg>
